<svg xmlns="http://www.w3.org/2000/svg" xmlns:xlink="http://www.w3.org/1999/xlink" width="130" height="130" viewBox="0 0 130 130">
  <defs>
    <clipPath id="clip-path">
      <rect id="Rectángulo_455533" data-name="Rectángulo 455533" width="130" height="124.675" fill="#19538d"/>
    </clipPath>
    <clipPath id="clip-path-2">
      <rect id="Rectángulo_465557" data-name="Rectángulo 465557" width="59.365" height="59.34" fill="#19538d"/>
    </clipPath>
  </defs>
  <g id="Grupo_1212595" data-name="Grupo 1212595" transform="translate(0.295 -0.228)">
    <ellipse id="Elipse_13674" data-name="Elipse 13674" cx="55.433" cy="55.433" rx="55.433" ry="55.433" transform="translate(9.272 9.794)" fill="#fff"/>
    <g id="Grupo_1179062" data-name="Grupo 1179062" transform="translate(-0.295 0.228)">
      <rect id="Rectángulo_455531" data-name="Rectángulo 455531" width="130" height="130" transform="translate(0 0)" fill="none"/>
      <g id="Grupo_1179061" data-name="Grupo 1179061" transform="translate(0 3.059)">
        <path id="Trazado_998445" data-name="Trazado 998445" d="M121.348,97.577H96.727l3.337-6.223h24.621Z" transform="translate(1.399 1.395)" fill="#62249e"/>
        <path id="Trazado_998446" data-name="Trazado 998446" d="M2.024,86.893,0,91.012H27.145l2.024-4.119Z" transform="translate(0 1.333)" fill="#19538d"/>
        <path id="Trazado_998447" data-name="Trazado 998447" d="M124.8,32.583h-26l2.038-4.616h26Z" transform="translate(1.439 0.429)" fill="#19538d"/>
        <path id="Trazado_998448" data-name="Trazado 998448" d="M37.632,12.837H3.483L5.521,8.221H39.671Z" transform="translate(0.067 0.158)" fill="#19538d"/>
        <g id="Grupo_1179060" data-name="Grupo 1179060" transform="translate(0)">
          <g id="Grupo_1179059" data-name="Grupo 1179059" clip-path="url(#clip-path)">
            <path id="Trazado_998449" data-name="Trazado 998449" d="M64.959,116.745A55.15,55.15,0,0,1,11.184,49.237H3.839a62.343,62.343,0,0,0,109.679,51.42H103.9a55,55,0,0,1-38.942,16.088" transform="translate(0.041 0.762)" fill="#19538d"/>
            <path id="Trazado_998450" data-name="Trazado 998450" d="M110.835,88.975h8.158c.655-1.3,1.25-2.641,1.815-3.995h-7.844c-.659,1.363-1.365,2.7-2.13,3.995" transform="translate(1.732 1.314)" fill="#19538d"/>
            <path id="Trazado_998451" data-name="Trazado 998451" d="M127.263,62.338A62.358,62.358,0,0,0,5.373,43.8h7.568A55.178,55.178,0,1,1,116.109,82.912h7.644a62.054,62.054,0,0,0,3.51-20.574" transform="translate(0.084)" fill="#19538d"/>
            <path id="Trazado_998452" data-name="Trazado 998452" d="M108.562,81.649v3.383H113q.8-1.662,1.5-3.383Z" transform="translate(1.696 1.263)" fill="#19538d"/>
            <path id="Trazado_998453" data-name="Trazado 998453" d="M128.115,81.649h-6.163q-.6,1.715-1.3,3.383h7.46Z" transform="translate(1.885 1.263)" fill="#19538d"/>
          </g>
        </g>
        <path id="Trazado_998444" data-name="Trazado 998444" d="M3.057,37.025,0,43.248H18.482l3.058-6.223Z" transform="translate(0 0.565)" fill="#62249e"/>
      </g>
    </g>
    <g id="Grupo_1212656" data-name="Grupo 1212656" transform="translate(35.022 35.557)">
      <g id="Grupo_1212655" data-name="Grupo 1212655" clip-path="url(#clip-path-2)">
        <path id="Trazado_1285679" data-name="Trazado 1285679" d="M57.041,59.326,46,59.329A2.21,2.21,0,0,1,43.725,57.1l0-5.206a.825.825,0,0,1,.887-.868.844.844,0,0,1,.831.883l0,5a.693.693,0,0,0,.76.715l10.725-.006a.648.648,0,0,0,.708-.722L57.626,46a.585.585,0,0,0-.524-.582l-11.552.024c-.35,1.669.346,3.1-.7,3.554-.289.126-.976.052-1.048-.458a11.867,11.867,0,0,1-.008-3.132,1.972,1.972,0,0,1,1.654-1.644l5.2-.063V31.374H40.065v5.892a2.679,2.679,0,0,1-2.589,2.755l-3.333,0,.009,3.876a2.6,2.6,0,1,1-1.742,0l0-3.866-4.758,0,.008,11.141a.824.824,0,0,1-.794.909l-11.215.018L15.638,57.1a2.2,2.2,0,0,1-2.278,2.224L2.422,59.34A2.342,2.342,0,0,1,0,56.911L.011,45.984a2.3,2.3,0,0,1,2.6-2.3l10.567.006a2.2,2.2,0,0,1,2.452,2.1l.032,4.576,10.245,0,.008-10.333H22.069A2.744,2.744,0,0,1,19.3,37.265l-.018-2.957c-.284-.131-1-.181-1.178.058a2.714,2.714,0,0,1-2.938,1.558,2.61,2.61,0,0,1-.15-5.091,2.722,2.722,0,0,1,3.1,1.527c.143.263.9.191,1.173.05L19.3,28.79,7.8,28.777a.9.9,0,0,1-.839-.866l0-12.27L2.23,15.61A2.2,2.2,0,0,1,.01,13.333L.016,2.2A2.2,2.2,0,0,1,2.062.013L13.547,0a2.15,2.15,0,0,1,2.089,2.193l-.017,5.392a.77.77,0,0,1-.844.679.909.909,0,0,1-.849-.867l0-5.01a.629.629,0,0,0-.595-.683l-11.555.04L1.733,13.3a.653.653,0,0,0,.7.607l11.4-.049.1-2.747a.894.894,0,0,1,.728-.844c.266-.067.864.047.919.5a12,12,0,0,1,0,3.108,2.164,2.164,0,0,1-2.189,1.747l-4.66-.006,0,11.438H19.3v-5.01a2.8,2.8,0,0,1,2.956-2.778l3.638.023,0-3.411a2.607,2.607,0,0,1,.812-5.053A2.61,2.61,0,0,1,29.3,12.737a2.715,2.715,0,0,1-1.639,3.189l0,3.348,4.745.01,0-11.331a.93.93,0,0,1,.875-1.012l10.418-.006.032-4.741A2.147,2.147,0,0,1,45.82,0L57.3.014a2.25,2.25,0,0,1,2.066,2.366l-.032,11.133a2.147,2.147,0,0,1-2.2,2.1L46,15.624a2.181,2.181,0,0,1-2.264-2.1L43.7,8.686l-9.558,0V19.264h2.973a2.748,2.748,0,0,1,2.937,2.6l.022,3.1,4.141-.025a2.61,2.61,0,0,1,5.056.775A2.618,2.618,0,0,1,44.2,26.738l-4.135-.048.005,2.963H51.557a.9.9,0,0,1,.852.963L52.4,43.666l4.545.029a2.256,2.256,0,0,1,2.406,2.281l.01,10.941a2.3,2.3,0,0,1-2.322,2.41m-.033-45.415a.654.654,0,0,0,.624-.614L57.591,1.744,45.888,1.7a.8.8,0,0,0-.451.874l.043,11.281Zm-30.6-1.258a.856.856,0,0,0-.354,1.232.869.869,0,0,0,1.2.274.892.892,0,0,0,.274-1.188.847.847,0,0,0-1.124-.318M37.121,38.316a1.082,1.082,0,0,0,1.186-.989V21.98a.98.98,0,0,0-1.025-.947h-15.2a.978.978,0,0,0-1.023.947l-.012,15.2a1.14,1.14,0,0,0,1.27,1.143ZM46.19,25.11a.906.906,0,0,0-.188,1.3.868.868,0,0,0,1.39-1.03.85.85,0,0,0-1.2-.272M15.457,32.522a.854.854,0,0,0-.578,1.239.806.806,0,0,0,1.029.408.859.859,0,0,0,.578-1.038.93.93,0,0,0-1.03-.609m-2.219,25.1a.684.684,0,0,0,.691-.72l-.042-11.455L2.607,45.415a1.011,1.011,0,0,0-.673.157.755.755,0,0,0-.2.6l0,10.733a.653.653,0,0,0,.707.727ZM33.074,45.5a.854.854,0,0,0-.578,1.239.806.806,0,0,0,1.029.408.859.859,0,0,0,.578-1.038.93.93,0,0,0-1.03-.609" transform="translate(0 0)" fill="#19538d"/>
        <path id="Trazado_1285680" data-name="Trazado 1285680" d="M26.206,27.53l-5.994.006a1.339,1.339,0,0,1-1.35-1.408l.009-5.958a1.216,1.216,0,0,1,1.143-1.291l6.487.015c.618,0,1.052.732,1.052,1.287l0,5.927a1.376,1.376,0,0,1-1.351,1.421m-.414-1.783-.014-5.181-5.2,0,0,5.206Z" transform="translate(-15.364 -15.379)" fill="#19538d"/>
        <path id="Trazado_1285681" data-name="Trazado 1285681" d="M261.817,262.879l-6.4-.022c-.615,0-1.05-.747-1.05-1.3l0-5.925A1.41,1.41,0,0,1,255.8,254.2l5.908.006a1.336,1.336,0,0,1,1.35,1.408l-.009,5.956a1.239,1.239,0,0,1-1.232,1.31m-.465-1.713-.006-5.178-5.209-.01.006,5.217Z" transform="translate(-207.192 -207.058)" fill="#19538d"/>
        <path id="Trazado_1285682" data-name="Trazado 1285682" d="M133.446,122.787l1.869,0a1.315,1.315,0,0,1,1.324,1.321V135.23a1.357,1.357,0,0,1-1.342,1.346l-11.125,0a1.35,1.35,0,0,1-1.338-1.352v-11.12a1.311,1.311,0,0,1,1.33-1.32l5.574,0a.844.844,0,0,1,.863.854.905.905,0,0,1-.867.886l-5.135.018-.01,10.3,10.276,0,.014-10.268-1.43-.04a.906.906,0,0,1-.868-.888.846.846,0,0,1,.865-.852" transform="translate(-100.055 -100.015)" fill="#19538d"/>
        <path id="Trazado_1285683" data-name="Trazado 1285683" d="M261.79,27.434l-5.99.019a1.412,1.412,0,0,1-1.437-1.434l0-5.924c0-.568.434-1.28,1.051-1.284l6.312-.04a1.262,1.262,0,0,1,1.321,1.316l.008,5.954a1.3,1.3,0,0,1-1.267,1.393m-.437-1.777-.008-5.182-5.2,0,0,5.21Z" transform="translate(-207.192 -15.29)" fill="#19538d"/>
        <path id="Trazado_1285684" data-name="Trazado 1285684" d="M26.241,262.894l-6.048,0a1.272,1.272,0,0,1-1.323-1.325l-.008-5.951a1.336,1.336,0,0,1,1.35-1.41l5.908,0a1.408,1.408,0,0,1,1.437,1.435l-.005,5.914a1.309,1.309,0,0,1-1.311,1.339m-.454-1.713,0-5.2-5.213.012.007,5.205Z" transform="translate(-15.364 -207.064)" fill="#19538d"/>
      </g>
    </g>
  </g>
</svg>
