<svg xmlns="http://www.w3.org/2000/svg" xmlns:xlink="http://www.w3.org/1999/xlink" width="128" height="128" viewBox="0 0 128 128">
  <defs>
    <clipPath id="clip-path">
      <rect id="Rectángulo_455533" data-name="Rectángulo 455533" width="128" height="122.776" fill="#19538d"/>
    </clipPath>
    <clipPath id="clip-path-2">
      <rect id="Rectángulo_465543" data-name="Rectángulo 465543" width="65.886" height="65.9" fill="#19538d"/>
    </clipPath>
  </defs>
  <g id="Grupo_1179063" data-name="Grupo 1179063" transform="translate(-383.746 -8399)">
    <circle id="Elipse_13674" data-name="Elipse 13674" cx="54.5" cy="54.5" r="54.5" transform="translate(392.746 8409)" fill="#fff"/>
    <g id="Grupo_1179062" data-name="Grupo 1179062" transform="translate(272)">
      <rect id="Rectángulo_455531" data-name="Rectángulo 455531" width="128" height="128" transform="translate(111.746 8399)" fill="none"/>
      <g id="Grupo_1179061" data-name="Grupo 1179061" transform="translate(111.746 8402)">
        <path id="Trazado_998445" data-name="Trazado 998445" d="M120.883,97.46H96.727L100,91.354h24.156Z" fill="#62249e"/>
        <path id="Trazado_998446" data-name="Trazado 998446" d="M1.985,86.893,0,90.934H26.632l1.986-4.041Z" fill="#19538d"/>
        <path id="Trazado_998447" data-name="Trazado 998447" d="M124.314,32.5H98.809l2-4.529h25.505Z" fill="#19538d"/>
        <path id="Trazado_998448" data-name="Trazado 998448" d="M36.988,12.75H3.483l2-4.529h33.5Z" fill="#19538d"/>
        <g id="Grupo_1179060" data-name="Grupo 1179060">
          <g id="Grupo_1179059" data-name="Grupo 1179059" clip-path="url(#clip-path)">
            <path id="Trazado_998449" data-name="Trazado 998449" d="M64,115.717a54.31,54.31,0,0,1-52.948-66.48H3.82A61.384,61.384,0,0,0,111.812,99.874h-9.469A54.154,54.154,0,0,1,64,115.717" fill="#19538d"/>
            <path id="Trazado_998450" data-name="Trazado 998450" d="M110.835,88.914h8.033c.645-1.284,1.231-2.6,1.787-3.934h-7.723c-.649,1.342-1.344,2.656-2.1,3.934" fill="#19538d"/>
            <path id="Trazado_998451" data-name="Trazado 998451" d="M125.388,61.388A61.4,61.4,0,0,0,5.373,43.131h7.452A54.33,54.33,0,1,1,114.406,81.649h7.526a61.118,61.118,0,0,0,3.456-20.261" fill="#19538d"/>
            <path id="Trazado_998452" data-name="Trazado 998452" d="M108.562,81.649V84.98h4.37q.792-1.637,1.475-3.331Z" fill="#19538d"/>
            <path id="Trazado_998453" data-name="Trazado 998453" d="M128,81.649h-6.068q-.592,1.689-1.277,3.331H128Z" fill="#19538d"/>
          </g>
        </g>
        <path id="Trazado_998444" data-name="Trazado 998444" d="M3,37.025,0,43.131H18.134l3-6.106Z" fill="#62249e"/>
      </g>
    </g>
    <g id="Grupo_1212629" data-name="Grupo 1212629" transform="translate(415.113 8430.05)">
      <g id="Grupo_1212628" data-name="Grupo 1212628" clip-path="url(#clip-path-2)">
        <path id="Trazado_1285558" data-name="Trazado 1285558" d="M85.506,86.483l27,.013,0-29.239-4.55-.031a.994.994,0,0,1-1-.981l-.044-5.066H85.483l-.022,8.285a1.1,1.1,0,0,1-1,1.032,1.022,1.022,0,0,1-1.1-1.029l-.02-5.52a4.093,4.093,0,0,0-1.578-.012l-.034,4.613a1,1,0,0,1-1.084.97,1.04,1.04,0,0,1-1.02-1.1L79.617,53.3a1.5,1.5,0,0,1,1.473-1.581l2.305-.094a1.933,1.933,0,0,1,1.634-2.538l23.46-.011,6.13,6.634V86.875a1.88,1.88,0,0,1-2.338,1.721l-.045,2.131A1.31,1.31,0,0,1,110.9,92H81a1.405,1.405,0,0,1-1.371-1.475l-.008-3.212a1.068,1.068,0,1,1,2.133.024l.055,2.539h28.232a1.593,1.593,0,0,0,.005-1.254l-24.814-.006a1.921,1.921,0,0,1-1.914-2.138c.028-.674.36-1.2.965-1.249.574-.047,1.106.266,1.219,1.257m25.474-31.51-1.868-2.093-.045,2.151a3.646,3.646,0,0,0,1.913-.058" transform="translate(-62.692 -38.641)" fill="#19538d"/>
        <path id="Trazado_1285559" data-name="Trazado 1285559" d="M37.369,107.168a11.464,11.464,0,1,1-9.705,13.256,11.456,11.456,0,0,1,9.705-13.256m.21,2.12a9.335,9.335,0,1,0,10.642,7.873,9.314,9.314,0,0,0-10.642-7.873" transform="translate(-21.658 -84.294)" fill="#19538d"/>
        <path id="Trazado_1285560" data-name="Trazado 1285560" d="M105.771,11.038l-4.89-.83a1.237,1.237,0,0,1-1-.642,1.153,1.153,0,0,1,.144-1.188c.409-.4.807-.327,1.76-.346a30.8,30.8,0,0,0-35.767-.358,1.062,1.062,0,0,1-1.146-1.786,32.975,32.975,0,0,1,38.394.562c-.253-1.055-.363-1.533.075-1.983a1.062,1.062,0,0,1,1.679.293l1.8,5.027a1,1,0,0,1-1.049,1.251" transform="translate(-50.718 0)" fill="#19538d"/>
        <path id="Trazado_1285561" data-name="Trazado 1285561" d="M87.765,263.172a32.942,32.942,0,0,1-38.394-.563c.255,1.068.354,1.532-.08,1.991-.363.385-1.375.438-1.6-.171L45.8,259.279a1.062,1.062,0,0,1,.254-.912,1.087,1.087,0,0,1,1.009-.333l5.05.928a1.049,1.049,0,0,1,.662,1.446c-.288.634-.833.645-1.924.609a30.782,30.782,0,0,0,35.769.376,1.042,1.042,0,0,1,1.457.375,1.027,1.027,0,0,1-.311,1.4" transform="translate(-36.038 -203.167)" fill="#19538d"/>
        <path id="Trazado_1285562" data-name="Trazado 1285562" d="M141.938,199.028l-17.007.034a1.12,1.12,0,0,1-1.076-.792c-.135-.395.037-1.3.665-1.3l17.377-.035a1.019,1.019,0,0,1,1.052.991,1.074,1.074,0,0,1-1.012,1.1" transform="translate(-97.493 -155.069)" fill="#19538d"/>
        <path id="Trazado_1285563" data-name="Trazado 1285563" d="M151.471,174.705H136.265a1.15,1.15,0,0,1-1.1-.961,1.028,1.028,0,0,1,.924-1.214l15.47,0a1.052,1.052,0,0,1,1.014,1.047,1.187,1.187,0,0,1-1.1,1.127" transform="translate(-106.423 -135.853)" fill="#19538d"/>
        <path id="Trazado_1285564" data-name="Trazado 1285564" d="M153.216,150.393l-14.861-.024a1.066,1.066,0,0,1-.992-1.019,1.019,1.019,0,0,1,1.023-1.082l15,0a1.054,1.054,0,0,1,1.079,1.1c-.04.706-.493,1.035-1.251,1.034" transform="translate(-108.161 -116.746)" fill="#19538d"/>
        <path id="Trazado_1285565" data-name="Trazado 1285565" d="M139.817,126.146l-8.741.063a1.058,1.058,0,0,1-1.057-.975c-.04-.426.256-1.126.864-1.125l8.86.013c.513,0,.7.628.73.924s-.1,1.1-.656,1.1" transform="translate(-102.377 -97.726)" fill="#19538d"/>
        <path id="Trazado_1285566" data-name="Trazado 1285566" d="M162.331,101.828l-5.387.012a1.1,1.1,0,0,1-1.086-.919,1.023,1.023,0,0,1,1.068-1.2l5.327,0a1.013,1.013,0,0,1,1.085,1.012,1.037,1.037,0,0,1-1.008,1.1" transform="translate(-122.718 -78.519)" fill="#19538d"/>
        <path id="Trazado_1285567" data-name="Trazado 1285567" d="M191.783,126.077l-5.222.02a1.1,1.1,0,0,1-1.174-1,1.089,1.089,0,0,1,1.173-1.146l5.32.024a.965.965,0,0,1,.928.945,1.011,1.011,0,0,1-1.025,1.158" transform="translate(-145.976 -97.601)" fill="#19538d"/>
        <path id="Trazado_1285568" data-name="Trazado 1285568" d="M27.412,53.844a1.1,1.1,0,0,1-1.585.322,1.066,1.066,0,0,1-.207-1.461,32.723,32.723,0,0,1,3-3.8,1.074,1.074,0,0,1,1.434-.274,1.057,1.057,0,0,1,.267,1.548,36.782,36.782,0,0,0-2.911,3.669" transform="translate(-20.018 -38.159)" fill="#19538d"/>
        <path id="Trazado_1285569" data-name="Trazado 1285569" d="M262.385,239.109a1.1,1.1,0,0,1-1.615.233,1.084,1.084,0,0,1-.054-1.575,36.731,36.731,0,0,0,2.921-3.662,1.053,1.053,0,0,1,1.692,1.253,34.144,34.144,0,0,1-2.945,3.752" transform="translate(-205.048 -184.009)" fill="#19538d"/>
        <path id="Trazado_1285570" data-name="Trazado 1285570" d="M123.118,101.9l-4.536.013a1.1,1.1,0,0,1-1.194-.989,1.081,1.081,0,0,1,.972-1.122l4.88,0a1.019,1.019,0,0,1,1,.992,1.056,1.056,0,0,1-1.125,1.111" transform="translate(-92.43 -78.585)" fill="#19538d"/>
        <path id="Trazado_1285571" data-name="Trazado 1285571" d="M9,93.15a1.094,1.094,0,0,1-1.277.841c-1.583-.294-.338-3.056.711-5.307a1.034,1.034,0,0,1,1.324-.545c1.471.51.006,2.373-.758,5.011" transform="translate(-5.49 -69.35)" fill="#19538d"/>
        <path id="Trazado_1285572" data-name="Trazado 1285572" d="M288.723,199.223a1,1,0,0,1-1.365.623,1.044,1.044,0,0,1-.594-1.377l1.384-3.718a1.115,1.115,0,0,1,1.246-.764,1.05,1.05,0,0,1,.754,1.463Z" transform="translate(-225.745 -152.736)" fill="#19538d"/>
        <path id="Trazado_1285573" data-name="Trazado 1285573" d="M298.5,118.791a1.057,1.057,0,0,1-2.076.384l-.731-3.995a1.041,1.041,0,0,1,.795-1.284,1.025,1.025,0,0,1,1.242.78Z" transform="translate(-232.815 -89.669)" fill="#19538d"/>
        <path id="Trazado_1285574" data-name="Trazado 1285574" d="M3,168.182c.453,2.918,1.331,5-.065,5.284-1.453.29-1.677-2.346-2.011-4.9a1.061,1.061,0,0,1,.835-1.167A1.044,1.044,0,0,1,3,168.182" transform="translate(-0.718 -131.796)" fill="#19538d"/>
        <path id="Trazado_1285575" data-name="Trazado 1285575" d="M300.556,159.145a1.132,1.132,0,0,1-1.061,1.124,1.037,1.037,0,0,1-1.067-1.117l.327-3.833a1.085,1.085,0,0,1,1.133-.99,1.073,1.073,0,0,1,.978,1.195Z" transform="translate(-234.986 -121.519)" fill="#19538d"/>
        <path id="Trazado_1285576" data-name="Trazado 1285576" d="M2.114,132.718a1.088,1.088,0,0,1-1.133.99A1.084,1.084,0,0,1,0,132.514c.141-2.445.051-4.683,1.373-4.724a1.032,1.032,0,0,1,1.064,1.1Z" transform="translate(0 -100.624)" fill="#19538d"/>
        <path id="Trazado_1285577" data-name="Trazado 1285577" d="M60.689,149.65l-2.646-2.661a1.054,1.054,0,1,1,1.49-1.492l1.917,1.892,4.424-5.005a1.155,1.155,0,0,1,1.476-.321,1.051,1.051,0,0,1,.3,1.463l-5.215,6.028a1.129,1.129,0,0,1-1.745.1" transform="translate(-45.457 -111.75)" fill="#19538d"/>
      </g>
    </g>
  </g>
</svg>
