<svg xmlns="http://www.w3.org/2000/svg" xmlns:xlink="http://www.w3.org/1999/xlink" width="130" height="130" viewBox="0 0 130 130">
  <defs>
    <clipPath id="clip-path">
      <rect id="Rectángulo_455533" data-name="Rectángulo 455533" width="130" height="124.675" fill="#19538d"/>
    </clipPath>
    <clipPath id="clip-path-2">
      <rect id="Rectángulo_465552" data-name="Rectángulo 465552" width="62.675" height="62.691" fill="#19538d"/>
    </clipPath>
  </defs>
  <g id="Grupo_1212584" data-name="Grupo 1212584" transform="translate(0.295 -0.228)">
    <ellipse id="Elipse_13674" data-name="Elipse 13674" cx="55.433" cy="55.433" rx="55.433" ry="55.433" transform="translate(9.272 9.794)" fill="#fff"/>
    <g id="Grupo_1179062" data-name="Grupo 1179062" transform="translate(-0.295 0.228)">
      <rect id="Rectángulo_455531" data-name="Rectángulo 455531" width="130" height="130" transform="translate(0 0)" fill="none"/>
      <g id="Grupo_1179061" data-name="Grupo 1179061" transform="translate(0 3.059)">
        <path id="Trazado_998445" data-name="Trazado 998445" d="M121.348,97.577H96.727l3.337-6.223h24.621Z" transform="translate(1.399 1.395)" fill="#62249e"/>
        <path id="Trazado_998446" data-name="Trazado 998446" d="M2.024,86.893,0,91.012H27.145l2.024-4.119Z" transform="translate(0 1.333)" fill="#19538d"/>
        <path id="Trazado_998447" data-name="Trazado 998447" d="M124.8,32.583h-26l2.038-4.616h26Z" transform="translate(1.439 0.429)" fill="#19538d"/>
        <path id="Trazado_998448" data-name="Trazado 998448" d="M37.632,12.837H3.483L5.521,8.221H39.671Z" transform="translate(0.067 0.158)" fill="#19538d"/>
        <g id="Grupo_1179060" data-name="Grupo 1179060" transform="translate(0)">
          <g id="Grupo_1179059" data-name="Grupo 1179059" clip-path="url(#clip-path)">
            <path id="Trazado_998449" data-name="Trazado 998449" d="M64.959,116.745A55.15,55.15,0,0,1,11.184,49.237H3.839a62.343,62.343,0,0,0,109.679,51.42H103.9a55,55,0,0,1-38.942,16.088" transform="translate(0.041 0.762)" fill="#19538d"/>
            <path id="Trazado_998450" data-name="Trazado 998450" d="M110.835,88.975h8.158c.655-1.3,1.25-2.641,1.815-3.995h-7.844c-.659,1.363-1.365,2.7-2.13,3.995" transform="translate(1.732 1.314)" fill="#19538d"/>
            <path id="Trazado_998451" data-name="Trazado 998451" d="M127.263,62.338A62.358,62.358,0,0,0,5.373,43.8h7.568A55.178,55.178,0,1,1,116.109,82.912h7.644a62.054,62.054,0,0,0,3.51-20.574" transform="translate(0.084)" fill="#19538d"/>
            <path id="Trazado_998452" data-name="Trazado 998452" d="M108.562,81.649v3.383H113q.8-1.662,1.5-3.383Z" transform="translate(1.696 1.263)" fill="#19538d"/>
            <path id="Trazado_998453" data-name="Trazado 998453" d="M128.115,81.649h-6.163q-.6,1.715-1.3,3.383h7.46Z" transform="translate(1.885 1.263)" fill="#19538d"/>
          </g>
        </g>
        <path id="Trazado_998444" data-name="Trazado 998444" d="M3.057,37.025,0,43.248H18.482l3.058-6.223Z" transform="translate(0 0.565)" fill="#62249e"/>
      </g>
    </g>
    <g id="Grupo_1212646" data-name="Grupo 1212646" transform="translate(33.368 33.882)">
      <g id="Grupo_1212645" data-name="Grupo 1212645" clip-path="url(#clip-path-2)">
        <path id="Trazado_1285636" data-name="Trazado 1285636" d="M28.21,86.468c-.506.06-.871,0-1.352.1l-2.446,8.249,18.431,0v2.111h-23l-.012-2.1,2.375-.007,2.5-8.306L4.16,86.481A4.154,4.154,0,0,1,0,82.213L.04,46.407c0-2.2,2.1-3.7,4.035-3.825a7.517,7.517,0,0,1,.068,2.082A2.162,2.162,0,0,0,2.092,47L2.1,78.129l33.341-.006.047,2.083-33.313,0-.07,2.041a2.02,2.02,0,0,0,2.027,2.126l24.048.007Z" transform="translate(0 -34.241)" fill="#19538d"/>
        <path id="Trazado_1285637" data-name="Trazado 1285637" d="M78.126,2.109,36.364,2.091A2.048,2.048,0,0,0,34.116,4.14L34.1,41.754a6.318,6.318,0,0,1-2.07-.049l-.006-37.37A4.168,4.168,0,0,1,36.358,0H77.833a4.224,4.224,0,0,1,4.349,4.534L82.158,41.7a6.5,6.5,0,0,1-2.066.055L80.079,4.137a1.968,1.968,0,0,0-1.953-2.028" transform="translate(-25.752 -0.001)" fill="#19538d"/>
        <path id="Trazado_1285638" data-name="Trazado 1285638" d="M180.768,194.118a1.112,1.112,0,0,1-1.2,1.231l-16.887-.015-7.09-5.125a2.754,2.754,0,0,1-.536-3.563,3.011,3.011,0,0,1,3.522-1.334,26.36,26.36,0,0,1,3.384,1.88L162,173.064a3.1,3.1,0,0,1,6.172-.173l.089,6.906a4.028,4.028,0,0,1,3.1.569,3.789,3.789,0,0,1,4.186-.065c.985-.371,2.244-1.021,3.445-.326a3.316,3.316,0,0,1,1.775,2.887Zm-2.14-11.527c0-.665-.861-.927-1.211-.815-1.184.379-.51,2-1.857,2.048-1.436.047-.646-2.071-2.137-2.082-1.4-.01-.619,2.192-2.144,2.08-1.35-.1-.618-2.278-2.123-2.071-1.322.182-.584,2.115-1.99,2.072a1.021,1.021,0,0,1-1.02-1.009l-.033-9.542A.993.993,0,0,0,165,172.25a.981.981,0,0,0-.95,1.015l0,15.638a1.08,1.08,0,0,1-.447,1,1,1,0,0,1-.979.119l-4.562-2.69a.9.9,0,0,0-1.1.228c-.209.219-.376.809,0,1.081l6.386,4.6,15.347-.032Z" transform="translate(-124.348 -136.823)" fill="#19538d"/>
        <path id="Trazado_1285639" data-name="Trazado 1285639" d="M119.69,42.882a9.329,9.329,0,0,1,11.017,7.557,9.394,9.394,0,0,1-18.445,3.571,9.336,9.336,0,0,1,7.428-11.127m4.878,10.967a6.933,6.933,0,0,1,2.878,2.445,7.31,7.31,0,1,0-11.961,0,7,7,0,0,1,2.856-2.462,4.185,4.185,0,0,1,.342-5.9,4.137,4.137,0,0,1,5.755.193,4.209,4.209,0,0,1,.13,5.724m-3.886-4.715a2.081,2.081,0,1,0,2.765,1.3,2.057,2.057,0,0,0-2.765-1.3m5.287,8.689a5.256,5.256,0,0,0-9.03.006,7.172,7.172,0,0,0,9.03-.006" transform="translate(-90.114 -34.345)" fill="#19538d"/>
        <path id="Trazado_1285640" data-name="Trazado 1285640" d="M74.286,151.434a3.013,3.013,0,0,0-2.851,3.178,3.054,3.054,0,0,0,2.946,3.023l16.828.04.038,2.1-17.018-.052a5.141,5.141,0,0,1-4.892-5.276,5.224,5.224,0,0,1,5.241-5.152L99.8,149.3a5.218,5.218,0,0,1,2.449,9.737l-1.035-1.814a3.128,3.128,0,0,0,1.454-3.491,3.059,3.059,0,0,0-2.856-2.325Z" transform="translate(-55.755 -120.048)" fill="#19538d"/>
        <path id="Trazado_1285641" data-name="Trazado 1285641" d="M300.741,80.275l-2.02-.059V78.131l2.024-.048.013-31.091a2.163,2.163,0,0,0-2.05-2.329,7.208,7.208,0,0,1,.071-2.083c1.918.117,4.031,1.627,4.033,3.826l.024,36a4.1,4.1,0,0,1-4.115,4.055l.017-2.061a2.018,2.018,0,0,0,1.993-1.962Z" transform="translate(-240.161 -34.239)" fill="#19538d"/>
        <path id="Trazado_1285642" data-name="Trazado 1285642" d="M55.414,23.317l-2.1.011,0-2.109,2.088,0Z" transform="translate(-42.867 -17.058)" fill="#19538d"/>
        <path id="Trazado_1285643" data-name="Trazado 1285643" d="M98.137,23.327h-2.1v-2.1l2.09,0Z" transform="translate(-77.22 -17.062)" fill="#19538d"/>
        <path id="Trazado_1285644" data-name="Trazado 1285644" d="M76.773,23.322l-2.035.01L74.7,21.288l2.04-.049Z" transform="translate(-60.067 -17.078)" fill="#19538d"/>
        <path id="Trazado_1285645" data-name="Trazado 1285645" d="M114.168,172.763a11.612,11.612,0,0,1-2.07,0l.008-1.973,2.029-.045Z" transform="translate(-90.139 -137.296)" fill="#19538d"/>
        <path id="Trazado_1285646" data-name="Trazado 1285646" d="M135.426,172.663l-2.066.035-.035-2.015a8.688,8.688,0,0,1,2.084.012Z" transform="translate(-107.208 -137.202)" fill="#19538d"/>
        <path id="Trazado_1285647" data-name="Trazado 1285647" d="M178.15,172.731a10.32,10.32,0,0,1-2.1,0l0-1.984,2.04-.037Z" transform="translate(-141.567 -137.271)" fill="#19538d"/>
        <path id="Trazado_1285648" data-name="Trazado 1285648" d="M92.714,172.66l-2.032.012a8.718,8.718,0,0,1,.015-1.978,8.511,8.511,0,0,1,1.991-.033Z" transform="translate(-72.879 -137.196)" fill="#19538d"/>
        <path id="Trazado_1285649" data-name="Trazado 1285649" d="M156.865,172.831l-2.066.01,0-2.009,2.034.009Z" transform="translate(-124.475 -137.367)" fill="#19538d"/>
      </g>
    </g>
  </g>
</svg>
