<svg xmlns="http://www.w3.org/2000/svg" width="1228" height="1146" viewBox="0 0 1228 1146">
  <g id="Grupo_1212670" data-name="Grupo 1212670" transform="translate(-186 -10714.4)">
    <g id="Grupo_1212302" data-name="Grupo 1212302" transform="translate(0 -2437.6)">
      <g id="Grupo_1212301" data-name="Grupo 1212301">
        <rect id="Rectángulo_465246" data-name="Rectángulo 465246" width="1228" height="1146" rx="18" transform="translate(186 13152)" fill="#dfefff"/>
        <rect id="Rectángulo_465287" data-name="Rectángulo 465287" width="174" height="166" transform="translate(341 13783)" fill="#cf9eff"/>
        <rect id="Rectángulo_465288" data-name="Rectángulo 465288" width="174" height="71" transform="translate(341 13984)" fill="#cf9eff"/>
        <rect id="Rectángulo_465289" data-name="Rectángulo 465289" width="174" height="50" transform="translate(341 14090)" fill="#cf9eff"/>
        <rect id="Rectángulo_465281" data-name="Rectángulo 465281" width="174" height="145" transform="translate(563 13457.939)" fill="#cf9eff"/>
        <rect id="Rectángulo_465284" data-name="Rectángulo 465284" width="174" height="93" transform="translate(563 13860)" fill="#cf9eff"/>
        <rect id="Rectángulo_465286" data-name="Rectángulo 465286" width="174" height="69" transform="translate(563 14210)" fill="#cf9eff"/>
        <rect id="Rectángulo_465279" data-name="Rectángulo 465279" width="174" height="114" rx="29" transform="translate(563 13259)" fill="#9ecfff"/>
        <rect id="Rectángulo_465290" data-name="Rectángulo 465290" width="147" height="88" rx="29" transform="translate(1003 13387)" fill="#9ecfff"/>
        <rect id="Rectángulo_465282" data-name="Rectángulo 465282" width="174" height="160" rx="29" transform="translate(563 13638)" fill="#9ecfff"/>
        <rect id="Rectángulo_465285" data-name="Rectángulo 465285" width="174" height="160" rx="29" transform="translate(563 13988)" fill="#9ecfff"/>
        <rect id="Rectángulo_465260" data-name="Rectángulo 465260" width="124" height="72" transform="translate(846 13280)" fill="#cf9eff"/>
        <rect id="Rectángulo_465292" data-name="Rectángulo 465292" width="149" height="117" transform="translate(844 13551)" fill="#cf9eff"/>
        <rect id="Rectángulo_465294" data-name="Rectángulo 465294" width="149" height="117" transform="translate(844 13703)" fill="#cf9eff"/>
        <rect id="Rectángulo_465280" data-name="Rectángulo 465280" width="144" height="72" transform="translate(1005 13280)" fill="#cf9eff"/>
        <rect id="Rectángulo_465257" data-name="Rectángulo 465257" width="139" height="39" rx="19.5" transform="translate(359 13171)" fill="#ffd470"/>
        <text id="Se_envía_un_correo_electrónico_de_restablecimiento._El_usuario_hacce_clic_en_el_enlace_para_reestablecer" data-name="Se envía un correo electrónico de restablecimiento. El usuario hacce clic en el enlace para reestablecer" transform="translate(357 13796)" fill="#12263f" font-size="16" font-family="Roboto-Bold, Roboto" font-weight="700"><tspan x="4.117" y="17">Se envía un correo </tspan><tspan x="19.793" y="41">electrónico de </tspan><tspan x="8.125" y="65">restablecimiento. </tspan><tspan x="12.043" y="89">El usuario hacce </tspan><tspan x="13.477" y="113">clic en el enlace </tspan><tspan x="8.09" y="137">para reestablecer</tspan></text>
        <text id="Introducir_nueva_contraseña" data-name="Introducir nueva contraseña" transform="translate(357 13997)" fill="#12263f" font-size="16" font-family="Roboto-Bold, Roboto" font-weight="700"><tspan x="12.492" y="17">Introducir nueva </tspan><tspan x="30.824" y="41">contraseña</tspan></text>
        <text id="Confirmación" transform="translate(357 14103)" fill="#12263f" font-size="16" font-family="Roboto-Bold, Roboto" font-weight="700"><tspan x="22.465" y="17">Confirmación</tspan></text>
        <text id="Ver_detalles_de_la_cuenta" data-name="Ver detalles de la cuenta" transform="translate(857 13292)" fill="#12263f" font-size="16" font-family="Roboto-Bold, Roboto" font-weight="700"><tspan x="8.531" y="17">Ver detalles </tspan><tspan x="7.828" y="41">de la cuenta</tspan></text>
        <text id="Si_el_pago_es_inferior_al_mínimo_exigible_mostrar_aviso" data-name="Si el pago es inferior al mínimo exigible, mostrar aviso" transform="translate(855 13563)" fill="#12263f" font-size="16" font-family="Roboto-Bold, Roboto" font-weight="700"><tspan x="17.219" y="17">Si el pago es </tspan><tspan x="28.324" y="41">inferior al </tspan><tspan x="3.734" y="65">mínimo exigible, </tspan><tspan x="13.703" y="89">mostrar aviso</tspan></text>
        <g id="Grupo_1212299" data-name="Grupo 1212299" transform="translate(30 -70)">
          <rect id="Rectángulo_465295" data-name="Rectángulo 465295" width="131" height="71" transform="translate(1130 13621)" fill="#cf9eff"/>
          <text id="Seleccione_la_cuenta_de_pago" data-name="Seleccione la cuenta de pago" transform="translate(1141 13633)" fill="#12263f" font-size="16" font-family="Roboto-Bold, Roboto" font-weight="700"><tspan x="8.617" y="17">Seleccione la </tspan><tspan x="1.355" y="41">cuenta de pago</tspan></text>
        </g>
        <g id="Grupo_1212297" data-name="Grupo 1212297" transform="translate(30 -85)">
          <rect id="Rectángulo_465299" data-name="Rectángulo 465299" width="131" height="48" transform="translate(1130 13894)" fill="#cf9eff"/>
          <text id="Reviar_y_enviar" data-name="Reviar y enviar" transform="translate(1141 13906)" fill="#12263f" font-size="16" font-family="Roboto-Bold, Roboto" font-weight="700"><tspan x="3.574" y="17">Reviar y enviar</tspan></text>
        </g>
        <g id="Grupo_1212296" data-name="Grupo 1212296" transform="translate(30 -77)">
          <rect id="Rectángulo_465301" data-name="Rectángulo 465301" width="131" height="48" transform="translate(1130 13969)" fill="#cf9eff"/>
          <text id="Confirmación-2" data-name="Confirmación" transform="translate(1141 13981)" fill="#12263f" font-size="16" font-family="Roboto-Bold, Roboto" font-weight="700"><tspan x="7.965" y="17">Confirmación</tspan></text>
        </g>
        <g id="Grupo_1212298" data-name="Grupo 1212298" transform="translate(30 -92)">
          <rect id="Rectángulo_465297" data-name="Rectángulo 465297" width="131" height="118" transform="translate(1130 13749)" fill="#cf9eff"/>
          <text id="Seleccione_la_fecha_de_contabilización_del_pago" data-name="Seleccione la fecha de contabilización del pago" transform="translate(1141 13761)" fill="#12263f" font-size="16" font-family="Roboto-Bold, Roboto" font-weight="700"><tspan x="7.117" y="17">Seleccione la </tspan><tspan x="24.047" y="41">fecha de </tspan><tspan x="0.309" y="65">contabilización </tspan><tspan x="24.172" y="89">del pago</tspan></text>
        </g>
        <text id="Posibilidad_de_seleccionar_distintos_puntos_importantes" data-name="Posibilidad de seleccionar distintos puntos importantes" transform="translate(855 13715)" fill="#12263f" font-size="16" font-family="Roboto-Bold, Roboto" font-weight="700"><tspan x="12.137" y="17">Posibilidad de </tspan><tspan x="21.441" y="41">seleccionar </tspan><tspan x="5.055" y="65">distintos puntos </tspan><tspan x="19.199" y="89">importantes</tspan></text>
        <text id="Pagar_con_tarjeta_de_crédito" data-name="Pagar con tarjeta de crédito" transform="translate(1016 13292)" fill="#12263f" font-size="16" font-family="Roboto-Bold, Roboto" font-weight="700"><tspan x="25.152" y="17">Pagar con </tspan><tspan x="0.227" y="41">tarjeta de crédito</tspan></text>
        <text id="Inicio" transform="translate(380 13179)" fill="#12263f" font-size="16" font-family="Roboto-Bold, Roboto" font-weight="700"><tspan x="29.25" y="17">Inicio</tspan></text>
        <text id="_Información_de_inicio_de_sesión_correcta_" data-name="¿Información de inicio de sesión correcta?" transform="translate(586 13279)" fill="#12263f" font-size="17" font-family="Roboto-Bold, Roboto" font-weight="700"><tspan x="2.171" y="18">¿Información de </tspan><tspan x="4.728" y="42">inicio de sesión </tspan><tspan x="28.136" y="66">correcta?</tspan></text>
        <text id="_Pagar_qué_cantidad_" data-name="¿Pagar qué cantidad?" transform="translate(1026 13407)" fill="#12263f" font-size="17" font-family="Roboto-Bold, Roboto" font-weight="700"><tspan x="7.678" y="18">¿Pagar qué </tspan><tspan x="13.439" y="42">cantidad?</tspan></text>
        <text id="_El_correo_electrónico_coincide_con_el_registro_de_la_base_de_datos_" data-name="¿El correo electrónico coincide con el registro de la base de datos?" transform="translate(578.739 13658.25)" fill="#12263f" font-size="17" font-family="Roboto-Bold, Roboto" font-weight="700"><tspan x="33.04" y="18">¿El correo </tspan><tspan x="28.354" y="42">electrónico </tspan><tspan x="13.857" y="66">coincide con el </tspan><tspan x="0.609" y="90">registro de la base </tspan><tspan x="34.26" y="114">de datos?</tspan></text>
        <text id="_El_correo_electrónico_coincide_con_el_registro_de_la_base_de_datos_2" data-name="¿El correo electrónico coincide con el registro de la base de datos?" transform="translate(578.739 14008.25)" fill="#12263f" font-size="17" font-family="Roboto-Bold, Roboto" font-weight="700"><tspan x="33.04" y="18">¿El correo </tspan><tspan x="28.354" y="42">electrónico </tspan><tspan x="13.857" y="66">coincide con el </tspan><tspan x="0.609" y="90">registro de la base </tspan><tspan x="34.26" y="114">de datos?</tspan></text>
        <path id="Trazado_1284667" data-name="Trazado 1284667" d="M0,0V80" transform="translate(563 13316.5) rotate(90)" fill="none" stroke="#62249e" stroke-width="3"/>
        <path id="Trazado_1284684" data-name="Trazado 1284684" d="M0,0V79.439" transform="translate(650 13452.439) rotate(180)" fill="none" stroke="#62249e" stroke-width="3"/>
        <path id="Trazado_1284686" data-name="Trazado 1284686" d="M-27.307,798.5H0V-1H-22.513" transform="translate(309 14115.5) rotate(180)" fill="none" stroke="#62249e" stroke-width="3"/>
        <path id="Trazado_1284689" data-name="Trazado 1284689" d="M-32,0V59.5H-167.128" transform="translate(396 13777.5) rotate(180)" fill="none" stroke="#62249e" stroke-width="3"/>
        <path id="Trazado_1284688" data-name="Trazado 1284688" d="M0,0V56.189" transform="translate(650 14204.189) rotate(180)" fill="none" stroke="#62249e" stroke-width="3"/>
        <path id="Trazado_1284671" data-name="Trazado 1284671" d="M0,0V30.26" transform="translate(1226 13652.26) rotate(180)" fill="none" stroke="#62249e" stroke-width="3"/>
        <path id="Trazado_1284679" data-name="Trazado 1284679" d="M0,0V80" transform="translate(1076.5 13555) rotate(180)" fill="none" stroke="#62249e" stroke-width="3"/>
        <path id="Trazado_1284678" data-name="Trazado 1284678" d="M0,0V115.51H76.033" transform="translate(1226 13546.26) rotate(180)" fill="none" stroke="#62249e" stroke-width="3"/>
        <path id="Trazado_1284676" data-name="Trazado 1284676" d="M0,0V30.26" transform="translate(918 13698.26) rotate(180)" fill="none" stroke="#62249e" stroke-width="3"/>
        <path id="Trazado_1284685" data-name="Trazado 1284685" d="M0,0V30.26" transform="translate(650 13633.26) rotate(180)" fill="none" stroke="#62249e" stroke-width="3"/>
        <path id="Trazado_1284693" data-name="Trazado 1284693" d="M0,0V56.19" transform="translate(650 13854.189) rotate(180)" fill="none" stroke="#62249e" stroke-width="3"/>
        <path id="Trazado_1284687" data-name="Trazado 1284687" d="M0,0V30.26" transform="translate(650 13983.26) rotate(180)" fill="none" stroke="#62249e" stroke-width="3"/>
        <path id="Trazado_1284690" data-name="Trazado 1284690" d="M0,0V30.26" transform="translate(428 13979.26) rotate(180)" fill="none" stroke="#62249e" stroke-width="3"/>
        <path id="Trazado_1284691" data-name="Trazado 1284691" d="M0,0V30.26" transform="translate(428 14085.26) rotate(180)" fill="none" stroke="#62249e" stroke-width="3"/>
        <path id="Trazado_1284692" data-name="Trazado 1284692" d="M-32.7,0H-16V202H3.146" transform="translate(523 14068) rotate(180)" fill="none" stroke="#62249e" stroke-width="3"/>
        <path id="Trazado_1284682" data-name="Trazado 1284682" d="M0,0V30.26" transform="translate(841.26 13316) rotate(90)" fill="none" stroke="#62249e" stroke-width="3"/>
        <path id="Trazado_1284683" data-name="Trazado 1284683" d="M0,0V21" transform="translate(758 13316) rotate(90)" fill="none" stroke="#62249e" stroke-width="3"/>
        <path id="Trazado_1284680" data-name="Trazado 1284680" d="M0,0V30.26" transform="translate(1077 13382.26) rotate(180)" fill="none" stroke="#62249e" stroke-width="3"/>
        <path id="Trazado_1284681" data-name="Trazado 1284681" d="M0,0V30.26" transform="translate(1000.26 13316) rotate(90)" fill="none" stroke="#62249e" stroke-width="3"/>
        <path id="Trazado_1284677" data-name="Trazado 1284677" d="M0,0V115.51H-85.109" transform="translate(918 13546.26) rotate(180)" fill="none" stroke="#62249e" stroke-width="3"/>
        <path id="Trazado_1284675" data-name="Trazado 1284675" d="M0,0V23.26" transform="translate(1155.26 13586.5) rotate(90)" fill="none" stroke="#62249e" stroke-width="3"/>
        <path id="Trazado_1284672" data-name="Trazado 1284672" d="M0,0V29.26" transform="translate(1226 13804.26) rotate(180)" fill="none" stroke="#62249e" stroke-width="3"/>
        <path id="Trazado_1284673" data-name="Trazado 1284673" d="M0,0V30.26" transform="translate(1226 13887.26) rotate(180)" fill="none" stroke="#62249e" stroke-width="3"/>
        <path id="Trazado_1284674" data-name="Trazado 1284674" d="M0,0V29.26" transform="translate(1226 13969.26) rotate(180)" fill="none" stroke="#62249e" stroke-width="3"/>
        <path id="Trazado_1284694" data-name="Trazado 1284694" d="M0,0V29.26" transform="translate(428 13239.26) rotate(180)" fill="none" stroke="#62249e" stroke-width="3"/>
        <rect id="Rectángulo_465274" data-name="Rectángulo 465274" width="111" height="63" transform="translate(1021 13555)" fill="#19538d"/>
        <text id="Restablecer_contraseña:_el_usuario_introduce_la_dirección_de_correo_electrónico" data-name="Restablecer contraseña: el usuario introduce la dirección de correo electrónico" transform="translate(575 13469.939)" fill="#12263f" font-size="16" font-family="Roboto-Bold, Roboto" font-weight="700"><tspan x="32.102" y="17">Restablecer </tspan><tspan x="24.129" y="41">contraseña: el </tspan><tspan x="3.602" y="65">usuario introduce la </tspan><tspan x="5.465" y="89">dirección de correo </tspan><tspan x="34.617" y="113">electrónico</tspan></text>
        <text id="Vuelva_a_introducir_la_dirección_de_correo_electrónico" data-name="Vuelva a introducir la dirección de correo electrónico" transform="translate(575 13872)" fill="#12263f" font-size="16" font-family="Roboto-Bold, Roboto" font-weight="700"><tspan x="7.609" y="17">Vuelva a introducir </tspan><tspan x="22.434" y="41">la dirección de </tspan><tspan x="9.246" y="65">correo electrónico</tspan></text>
        <text id="Proceso_de_inscripción" data-name="Proceso de inscripción" transform="translate(575 14222)" fill="#12263f" font-size="16" font-family="Roboto-Bold, Roboto" font-weight="700"><tspan x="30.582" y="17">Proceso de </tspan><tspan x="31.273" y="41">inscripción</tspan></text>
        <text id="Pago_mínimo_adecuado" data-name="Pago mínimo adecuado" transform="translate(1025 13564)" fill="#fff" font-size="16" font-family="Roboto-Bold, Roboto" font-weight="700"><tspan x="3.844" y="17">Pago mínimo </tspan><tspan x="16.41" y="41">adecuado</tspan></text>
        <g id="Grupo_1212295" data-name="Grupo 1212295" transform="translate(30 -70)">
          <rect id="Rectángulo_465278" data-name="Rectángulo 465278" width="131" height="39" rx="19.5" transform="translate(1130 14044)" fill="#ffd470"/>
          <text id="Fin" transform="translate(1179 14053)" fill="#12263f" font-size="16" font-family="Roboto-Bold, Roboto" font-weight="700"><tspan x="5.516" y="17">Fin</tspan></text>
        </g>
        <rect id="Rectángulo_465291" data-name="Rectángulo 465291" width="43" height="20" transform="translate(895 13476)" fill="#f1e2ff"/>
        <rect id="Rectángulo_465302" data-name="Rectángulo 465302" width="58" height="20" transform="translate(1197 13420)" fill="#f1e2ff"/>
        <path id="Polígono_56" data-name="Polígono 56" d="M6,0l6,11H0Z" transform="translate(1232 13657) rotate(180)" fill="#62249e"/>
        <path id="Polígono_63" data-name="Polígono 63" d="M6,0l6,11H0Z" transform="translate(1232 13551) rotate(180)" fill="#62249e"/>
        <path id="Polígono_61" data-name="Polígono 61" d="M6,0l6,11H0Z" transform="translate(924 13703) rotate(180)" fill="#62249e"/>
        <path id="Polígono_68" data-name="Polígono 68" d="M6,0l6,11H0Z" transform="translate(656 13638) rotate(180)" fill="#62249e"/>
        <path id="Polígono_70" data-name="Polígono 70" d="M6,0l6,11H0Z" transform="translate(515 13872) rotate(-90)" fill="#62249e"/>
        <path id="Polígono_73" data-name="Polígono 73" d="M6,0l6,11H0Z" transform="translate(434 13984) rotate(180)" fill="#62249e"/>
        <path id="Polígono_74" data-name="Polígono 74" d="M6,0l6,11H0Z" transform="translate(434 14090) rotate(180)" fill="#62249e"/>
        <path id="Polígono_66" data-name="Polígono 66" d="M6,0l6,11H0Z" transform="translate(846 13310) rotate(90)" fill="#62249e"/>
        <path id="Polígono_75" data-name="Polígono 75" d="M6,0l6,11H0Z" transform="translate(341 14110) rotate(90)" fill="#62249e"/>
        <path id="Polígono_67" data-name="Polígono 67" d="M6,0l6,11H0Z" transform="translate(656 13457.939) rotate(180)" fill="#62249e"/>
        <path id="Polígono_69" data-name="Polígono 69" d="M6,0l6,11H0Z" transform="translate(656 13859.689) rotate(180)" fill="#62249e"/>
        <path id="Polígono_72" data-name="Polígono 72" d="M6,0l6,11H0Z" transform="translate(434 13783) rotate(180)" fill="#62249e"/>
        <path id="Polígono_71" data-name="Polígono 71" d="M6,0l6,11H0Z" transform="translate(656 14209.689) rotate(180)" fill="#62249e"/>
        <path id="Polígono_64" data-name="Polígono 64" d="M6,0l6,11H0Z" transform="translate(1083 13387) rotate(180)" fill="#62249e"/>
        <path id="Polígono_65" data-name="Polígono 65" d="M6,0l6,11H0Z" transform="translate(1005 13310) rotate(90)" fill="#62249e"/>
        <path id="Polígono_62" data-name="Polígono 62" d="M6,0l6,11H0Z" transform="translate(924 13551) rotate(180)" fill="#62249e"/>
        <path id="Polígono_60" data-name="Polígono 60" d="M6,0l6,11H0Z" transform="translate(1160 13580.5) rotate(90)" fill="#62249e"/>
        <path id="Polígono_57" data-name="Polígono 57" d="M6,0l6,11H0Z" transform="translate(1232 13809) rotate(180)" fill="#62249e"/>
        <path id="Polígono_58" data-name="Polígono 58" d="M6,0l6,11H0Z" transform="translate(1232 13892) rotate(180)" fill="#62249e"/>
        <path id="Polígono_59" data-name="Polígono 59" d="M6,0l6,11H0Z" transform="translate(1232 13974) rotate(180)" fill="#62249e"/>
        <path id="Polígono_76" data-name="Polígono 76" d="M6,0l6,11H0Z" transform="translate(434 13244) rotate(180)" fill="#62249e"/>
        <text id="Otro_importe" data-name="Otro importe" transform="translate(867 13474)" fill="#12263f" font-size="16" font-family="Roboto-Regular, Roboto"><tspan x="6.457" y="17">Otro importe</tspan></text>
        <g id="Grupo_1212300" data-name="Grupo 1212300" transform="translate(25 -70)">
          <rect id="Rectángulo_465303" data-name="Rectángulo 465303" width="67" height="20" transform="translate(733 13376)" fill="#f1e2ff"/>
          <text id="Correcto" transform="translate(733 13374)" fill="#12263f" font-size="16" font-family="Roboto-Regular, Roboto"><tspan x="2.793" y="17">Correcto</tspan></text>
        </g>
        <text id="Saldo" transform="translate(1174 13418)" fill="#12263f" font-size="16" font-family="Roboto-Regular, Roboto"><tspan x="31.387" y="17">Saldo</tspan></text>
        <rect id="Rectángulo_465305" data-name="Rectángulo 465305" width="60" height="25" transform="translate(616 13399.939)" fill="#f1e2ff"/>
        <rect id="Rectángulo_465306" data-name="Rectángulo 465306" width="60" height="25" transform="translate(616 13810.595)" fill="#f1e2ff"/>
        <rect id="Rectángulo_465308" data-name="Rectángulo 465308" width="44" height="25" transform="translate(517 13948)" fill="#f1e2ff"/>
        <rect id="Rectángulo_465309" data-name="Rectángulo 465309" width="29" height="25" transform="translate(476 13706)" fill="#f1e2ff"/>
        <rect id="Rectángulo_465307" data-name="Rectángulo 465307" width="60" height="25" transform="translate(616 14160.595)" fill="#f1e2ff"/>
        <text id="Incorrecto" transform="translate(608 13399.939)" fill="#12263f" font-size="16" font-family="Roboto-Regular, Roboto"><tspan x="5.723" y="17">Incorrecto</tspan></text>
        <text id="No" transform="translate(608 13810.595)" fill="#12263f" font-size="16" font-family="Roboto-Regular, Roboto"><tspan x="31.734" y="17">No</tspan></text>
        <text id="Si" transform="translate(517 13948)" fill="#12263f" font-size="16" font-family="Roboto-Regular, Roboto"><tspan x="11.813" y="17">Si</tspan></text>
        <text id="Si-2" data-name="Si" transform="translate(472 13706)" fill="#12263f" font-size="16" font-family="Roboto-Regular, Roboto"><tspan x="11.813" y="17">Si</tspan></text>
        <text id="No-2" data-name="No" transform="translate(608 14160.595)" fill="#12263f" font-size="16" font-family="Roboto-Regular, Roboto"><tspan x="31.734" y="17">No</tspan></text>
        <rect id="Rectángulo_465258" data-name="Rectángulo 465258" width="174" height="145" transform="translate(341 13244)" fill="#cf9eff"/>
        <text id="Página_de_inicio_de_sesión:_El_usuario_introduce_su_nombre_de_usuario_y_contraseña" data-name="Página de inicio de sesión: El usuario introduce su nombre de usuario y contraseña" transform="translate(357 13257)" fill="#12263f" font-size="16" font-family="Roboto-Bold, Roboto" font-weight="700"><tspan x="2.914" y="17">Página de inicio de </tspan><tspan x="7.543" y="41">sesión: El usuario </tspan><tspan x="26.332" y="65">introduce su </tspan><tspan x="3.59" y="89">nombre de usuario </tspan><tspan x="24.816" y="113">y contraseña</tspan></text>
      </g>
    </g>
  </g>
</svg>
